<?xml version="1.0" standalone="no"?>
<svg xmlns:xlink="http://www.w3.org/1999/xlink" id="wave" style="transform:rotate(0deg); transition: 0.3s" viewBox="0 0 1440 490" version="1.1" xmlns="http://www.w3.org/2000/svg"><defs><linearGradient id="sw-gradient-0" x1="0" x2="0" y1="1" y2="0"><stop stop-color="rgba(85.75, 209.134, 255, 1)" offset="0%"/><stop stop-color="rgba(0, 82.241, 255, 1)" offset="100%"/></linearGradient></defs><path style="transform:translate(0, 0px); opacity:1" fill="url(#sw-gradient-0)" d="M0,441L60,392C120,343,240,245,360,245C480,245,600,343,720,367.5C840,392,960,343,1080,269.5C1200,196,1320,98,1440,57.2C1560,16,1680,33,1800,49C1920,65,2040,82,2160,122.5C2280,163,2400,229,2520,212.3C2640,196,2760,98,2880,73.5C3000,49,3120,98,3240,106.2C3360,114,3480,82,3600,73.5C3720,65,3840,82,3960,98C4080,114,4200,131,4320,171.5C4440,212,4560,278,4680,277.7C4800,278,4920,212,5040,204.2C5160,196,5280,245,5400,277.7C5520,310,5640,327,5760,302.2C5880,278,6000,212,6120,187.8C6240,163,6360,180,6480,196C6600,212,6720,229,6840,196C6960,163,7080,82,7200,65.3C7320,49,7440,98,7560,147C7680,196,7800,245,7920,285.8C8040,327,8160,359,8280,310.3C8400,261,8520,131,8580,65.3L8640,0L8640,490L8580,490C8520,490,8400,490,8280,490C8160,490,8040,490,7920,490C7800,490,7680,490,7560,490C7440,490,7320,490,7200,490C7080,490,6960,490,6840,490C6720,490,6600,490,6480,490C6360,490,6240,490,6120,490C6000,490,5880,490,5760,490C5640,490,5520,490,5400,490C5280,490,5160,490,5040,490C4920,490,4800,490,4680,490C4560,490,4440,490,4320,490C4200,490,4080,490,3960,490C3840,490,3720,490,3600,490C3480,490,3360,490,3240,490C3120,490,3000,490,2880,490C2760,490,2640,490,2520,490C2400,490,2280,490,2160,490C2040,490,1920,490,1800,490C1680,490,1560,490,1440,490C1320,490,1200,490,1080,490C960,490,840,490,720,490C600,490,480,490,360,490C240,490,120,490,60,490L0,490Z"/></svg>