<?xml version="1.0" standalone="no"?>
<svg xmlns:xlink="http://www.w3.org/1999/xlink" id="wave" style="transform:rotate(0deg); transition: 0.3s" viewBox="0 0 1440 160" version="1.1" xmlns="http://www.w3.org/2000/svg"><defs><linearGradient id="sw-gradient-0" x1="0" x2="0" y1="1" y2="0"><stop stop-color="rgba(243, 106, 62, 1)" offset="0%"/><stop stop-color="rgba(255, 179, 11, 1)" offset="100%"/></linearGradient></defs><path style="transform:translate(0, 0px); opacity:1" fill="url(#sw-gradient-0)" d="M0,48L40,56C80,64,160,80,240,72C320,64,400,32,480,29.3C560,27,640,53,720,69.3C800,85,880,91,960,98.7C1040,107,1120,117,1200,117.3C1280,117,1360,107,1440,90.7C1520,75,1600,53,1680,56C1760,59,1840,85,1920,96C2000,107,2080,101,2160,90.7C2240,80,2320,64,2400,72C2480,80,2560,112,2640,120C2720,128,2800,112,2880,101.3C2960,91,3040,85,3120,85.3C3200,85,3280,91,3360,85.3C3440,80,3520,64,3600,48C3680,32,3760,16,3840,29.3C3920,43,4000,85,4080,98.7C4160,112,4240,96,4320,96C4400,96,4480,112,4560,117.3C4640,123,4720,117,4800,114.7C4880,112,4960,112,5040,109.3C5120,107,5200,101,5280,96C5360,91,5440,85,5520,93.3C5600,101,5680,123,5720,133.3L5760,144L5760,160L5720,160C5680,160,5600,160,5520,160C5440,160,5360,160,5280,160C5200,160,5120,160,5040,160C4960,160,4880,160,4800,160C4720,160,4640,160,4560,160C4480,160,4400,160,4320,160C4240,160,4160,160,4080,160C4000,160,3920,160,3840,160C3760,160,3680,160,3600,160C3520,160,3440,160,3360,160C3280,160,3200,160,3120,160C3040,160,2960,160,2880,160C2800,160,2720,160,2640,160C2560,160,2480,160,2400,160C2320,160,2240,160,2160,160C2080,160,2000,160,1920,160C1840,160,1760,160,1680,160C1600,160,1520,160,1440,160C1360,160,1280,160,1200,160C1120,160,1040,160,960,160C880,160,800,160,720,160C640,160,560,160,480,160C400,160,320,160,240,160C160,160,80,160,40,160L0,160Z"/><defs><linearGradient id="sw-gradient-1" x1="0" x2="0" y1="1" y2="0"><stop stop-color="rgba(243, 106, 62, 1)" offset="0%"/><stop stop-color="rgba(255, 179, 11, 1)" offset="100%"/></linearGradient></defs><path style="transform:translate(0, 50px); opacity:0.9" fill="url(#sw-gradient-1)" d="M0,32L40,29.3C80,27,160,21,240,16C320,11,400,5,480,18.7C560,32,640,64,720,80C800,96,880,96,960,88C1040,80,1120,64,1200,50.7C1280,37,1360,27,1440,18.7C1520,11,1600,5,1680,18.7C1760,32,1840,64,1920,72C2000,80,2080,64,2160,56C2240,48,2320,48,2400,58.7C2480,69,2560,91,2640,101.3C2720,112,2800,112,2880,104C2960,96,3040,80,3120,66.7C3200,53,3280,43,3360,48C3440,53,3520,75,3600,72C3680,69,3760,43,3840,26.7C3920,11,4000,5,4080,18.7C4160,32,4240,64,4320,64C4400,64,4480,32,4560,40C4640,48,4720,96,4800,120C4880,144,4960,144,5040,144C5120,144,5200,144,5280,144C5360,144,5440,144,5520,130.7C5600,117,5680,91,5720,77.3L5760,64L5760,160L5720,160C5680,160,5600,160,5520,160C5440,160,5360,160,5280,160C5200,160,5120,160,5040,160C4960,160,4880,160,4800,160C4720,160,4640,160,4560,160C4480,160,4400,160,4320,160C4240,160,4160,160,4080,160C4000,160,3920,160,3840,160C3760,160,3680,160,3600,160C3520,160,3440,160,3360,160C3280,160,3200,160,3120,160C3040,160,2960,160,2880,160C2800,160,2720,160,2640,160C2560,160,2480,160,2400,160C2320,160,2240,160,2160,160C2080,160,2000,160,1920,160C1840,160,1760,160,1680,160C1600,160,1520,160,1440,160C1360,160,1280,160,1200,160C1120,160,1040,160,960,160C880,160,800,160,720,160C640,160,560,160,480,160C400,160,320,160,240,160C160,160,80,160,40,160L0,160Z"/></svg>